# xmcd
#
# Track frame offsets:
#	150
#	30060
#	51322
#	74265
#	91377
#	109245
#	128197
#	146567
#	169020
#	187150
# Disc length: 2736 seconds
# Revision: 1
# Processed by: cddbd v1.5.2PL0 Copyright (c) Steve Scherf et al.
#
# Submitted via: libkcddb 0.31
#
DISCID=8a0aae0a
DTITLE=Denise LaSalle - Trapped
DYEAR=1997
DGENRE=Soul
TTITLE0=Trapped in a thing called love
TTITLE1=Don't mess with my man
TTITLE2=Love is a five letter word
TTITLE3=I was telling him about you
TTITLE4=Is he lovin' someone else tonight
TTITLE5=Hold on
TTITLE6=You gotta pay to play
TTITLE7=Bring it home to me
TTITLE8=Too many lovers
TTITLE9=One more wrong step
EXTD=1997 601 Music - Malaco SXCD 3115
EXTT0=Denise LaSalle
EXTT1=Denise LaSalle
EXTT2=Gene Barge
EXTT3=Denise LaSalle
EXTT4=Frank Johnson, Denise LaSalle
EXTT5=Joe Tex
EXTT6=George Jackson
EXTT7=Sam Cooke
EXTT8=Denise LaSalle, George Jackson, R. Townsend
EXTT9=Denise LaSalle
PLAYORDER=
